<svg width="1200" height="650" viewBox="0 0 1200 650">
  <rect x="5" y="5" rx="150" ry="150" width="1190" height="640" fill="white" stroke-width="10" stroke="gray" />
  <text x="600" y="40" text-anchor="middle" dominant-baseline="central" font-size="1.5em" font-family="cursive" font-weight="bold" fill="black">DDS Concept</text>

  <rect x="65" y="150" rx="80" ry="80" width="645" height="350" fill="white" stroke-width="10" stroke="#4287f5" />
  <text x="370" y="190" text-anchor="middle" dominant-baseline="central" font-size="1.4em" font-family="cursive" font-weight="bold" fill="black">DDS Domain 1</text>

  <rect x="760" y="150" rx="80" ry="80" width="370" height="350" fill="white" stroke-width="10" stroke="#4287f5" />
  <text x="945" y="190" text-anchor="middle" dominant-baseline="central" font-size="1.4em" font-family="cursive" font-weight="bold" fill="black">DDS Domain 2</text>

  <rect x="800" y="290" rx="20" ry="20" width="130" height="110" fill="#00ccff" />
  <rect x="962" y="290" rx="20" ry="20" width="130" height="110" fill="#00ccff" />
  <rect x="543" y="290" rx="20" ry="20" width="130" height="110" fill="#00ccff" />
  <rect x="255" y="290" rx="20" ry="20" width="260" height="110" fill="#00ccff" />
  <rect x="98" y="290" rx="20" ry="20" width="130" height="110" fill="#00ccff" />

  <text x="163" y="313" text-anchor="middle" dominant-baseline="central" font-size="0.7em" font-family="cursive" font-weight="bold" fill="black">Domain Participant</text>
  <text x="380" y="313" text-anchor="middle" dominant-baseline="central" font-size="0.7em" font-family="cursive" font-weight="bold" fill="black">Domain Participant</text>
  <text x="608" y="313" text-anchor="middle" dominant-baseline="central" font-size="0.7em" font-family="cursive" font-weight="bold" fill="black">Domain Participant</text>
  <text x="866" y="313" text-anchor="middle" dominant-baseline="central" font-size="0.7em" font-family="cursive" font-weight="bold" fill="black">Domain Participant</text>
  <text x="1027" y="313" text-anchor="middle" dominant-baseline="central" font-size="0.7em" font-family="cursive" font-weight="bold" fill="black">Domain Participant</text>

  <path id="path1" d="m 160.6809,373.3799 c -1.50954,15.83165 4.31866,23.81144 15.50947,43.36922 20.03879,22.46991 34.74098,24.70593 66.1745,21.92322 48.21002,0.37144 46.42875,4.21436 67.40906,-15.06907 6.59265,-8.48632 12.36997,-23.16338 12.47946,-49.44539" stroke-width="1.5" fill="none" stroke="#000000" />
  <path id="path2" d="m 444.8008,377.40449 c -1.50954,14.53283 4.31866,21.85796 15.50947,39.81122 20.03879,20.62648 34.74098,22.67906 66.1745,20.12464 48.21002,0.34097 46.42875,3.86862 67.40906,-13.8328 6.59265,-7.79011 12.36997,-21.26306 12.47946,-45.3889" stroke-width="1.5" fill="none" stroke="#000000" />
  <path id="path3" d="m 865.91334,378.1739 c -1.51014,14.0497 4.32037,21.13131 15.51562,38.48775 20.04674,19.94078 34.75477,21.92512 66.20076,19.45562 48.22915,0.32963 46.44718,3.74001 67.43588,-13.37295 6.5952,-7.53113 12.3749,-20.5562 12.4843,-43.88001" stroke-width="1.5" fill="none" stroke="#000000" />

  <path d="m 896.40434,371.47625 c 9.77536,2.95352 24.91149,-11.26875 34.07735,-28.73273 9.3736,-25.31409 10.28499,-36.00356 9.84602,-79.05864" stroke-width="1.3" fill="none" stroke="#000000" />
  <path d="m 482.95175,370.35109 c 8.70518,3.04805 22.18422,-11.62943 30.34662,-29.65237 8.3474,-26.12431 9.15901,-37.15593 8.76811,-81.58906" stroke-width="1.3" fill="none" stroke="#000000" />
  <path d="m 198.09999,369.30252 c 8.67209,3.26796 22.09992,-12.46847 30.2313,-31.79173 8.31569,-28.0091 9.12423,-39.83663 8.73479,-87.47552" stroke-width="1.3" fill="none" stroke="#000000" />
  <path d="m 288.50674,369.27211 c -9.14402,3.14476 -23.30252,-11.99849 -31.87638,-30.59336 -8.76819,-26.95332 -9.62071,-38.335 -9.21012,-84.17815" stroke-width="1.3" fill="none" stroke="#000000" />
  <path d="m 570.21837,367.62081 c -7.76887,3.17841 -19.79809,-12.12692 -27.08253,-30.92084 -7.44955,-27.24183 -8.17386,-38.74535 -7.82502,-80.07919" stroke-width="1.3" fill="none" stroke="#000000" />
  <path d="m 993.14498,373.44811 c -8.72892,3.06634 -22.24473,-11.69927 -30.42938,-29.83041 -8.37016,-26.28116 -9.18399,-37.37901 -8.79202,-82.0789" stroke-width="1.3" fill="none" stroke="#000000" />

  <path d="m 323.17507,377.95992 -8.86426,14.52608 13.33106,1.93047 z" stroke-width="3" />
  <path d="m 608,377.19831 -9.96896,13.79137 13.14015,2.96315 z" stroke-width="3" />
  <path d="m 1027.7462,377.07477 -8.2362,14.89114 13.4014,1.35978 z" stroke-width="3" />

  <ellipse id="message1" rx="20" ry="10" fill="gray" />
  <ellipse id="message2" rx="20" ry="10" fill="gray" />
  <ellipse id="message3" rx="20" ry="10" fill="gray" />

  <text id="text1" text-anchor="middle" dominant-baseline="central" font-size="0.5em" font-family="cursive" font-weight="bold" fill="white">msg</text>
  <text id="text2" text-anchor="middle" dominant-baseline="central" font-size="0.5em" font-family="cursive" font-weight="bold" fill="white">msg</text>
  <text id="text3" text-anchor="middle" dominant-baseline="central" font-size="0.5em" font-family="cursive" font-weight="bold" fill="white">msg</text>

  <animateMotion href="#message1" dur="3s" repeatCount="indefinite" calcMode="paced">
    <mpath href="#path1"/>
  </animateMotion>
  <animateMotion href="#text1" dur="3s" repeatCount="indefinite" calcMode="paced">
    <mpath href="#path1"/>
  </animateMotion>

  <animateMotion href="#message2" dur="3s" repeatCount="indefinite" calcMode="paced">
    <mpath href="#path2"/>
  </animateMotion>
  <animateMotion href="#text2" dur="3s" repeatCount="indefinite" calcMode="paced">
    <mpath href="#path2"/>
  </animateMotion>

  <animateMotion href="#message3" dur="3s" repeatCount="indefinite" calcMode="paced">
    <mpath href="#path3"/>
  </animateMotion>
  <animateMotion href="#text3" dur="3s" repeatCount="indefinite" calcMode="paced">
    <mpath href="#path3"/>
  </animateMotion>

  <animate href="#message1" attributeName="opacity" calcMode="discrete" keyTimes="0;0.33333" values="1;0" dur="9s" repeatCount="indefinite"/>
  <animate href="#text1" attributeName="opacity" calcMode="discrete" keyTimes="0;0.33333" values="1;0" dur="9s" repeatCount="indefinite"/>
  <animate href="#message3" attributeName="opacity" calcMode="discrete" keyTimes="0;0.33333;0.66666" values="0;1;0" dur="9s" repeatCount="indefinite"/>
  <animate href="#text3" attributeName="opacity" calcMode="discrete" keyTimes="0;0.33333;0.66666" values="0;1;0" dur="9s" repeatCount="indefinite"/>
  <animate href="#message2" attributeName="opacity" calcMode="discrete" keyTimes="0;0.66666;1" values="0;1;0" dur="9s" repeatCount="indefinite"/>
  <animate href="#text2" attributeName="opacity" calcMode="discrete" keyTimes="0;0.66666;1" values="0;1;0" dur="9s" repeatCount="indefinite"/>

  <ellipse cx="160" cy="365" rx="52" ry="14" fill="#ff6600" />
  <ellipse cx="322" cy="365" rx="52" ry="14" fill="#2ca02c" />
  <ellipse cx="444" cy="365" rx="52" ry="14" fill="#ff6600" />
  <ellipse cx="607" cy="365" rx="52" ry="14" fill="#2ca02c" />
  <ellipse cx="863" cy="365" rx="52" ry="14" fill="#ff6600" />
  <ellipse cx="1025" cy="365" rx="52" ry="14" fill="#2ca02c" />

  <text x="158" y="365" text-anchor="middle" dominant-baseline="central" font-size="0.7em" font-family="cursive" font-weight="bold" fill="white">PUBLISHER</text>
  <text x="320" y="365" text-anchor="middle" dominant-baseline="central" font-size="0.7em" font-family="cursive" font-weight="bold" fill="white">SUBSCRIBER</text>
  <text x="442" y="365" text-anchor="middle" dominant-baseline="central" font-size="0.7em" font-family="cursive" font-weight="bold" fill="white">PUBLISHER</text>
  <text x="607" y="365" text-anchor="middle" dominant-baseline="central" font-size="0.7em" font-family="cursive" font-weight="bold" fill="white">SUBSCRIBER</text>
  <text x="861" y="365" text-anchor="middle" dominant-baseline="central" font-size="0.7em" font-family="cursive" font-weight="bold" fill="white">PUBLISHER</text>
  <text x="1025" y="365" text-anchor="middle" dominant-baseline="central" font-size="0.7em" font-family="cursive" font-weight="bold" fill="white">SUBSCRIBER</text>

  <rect x="213" y="418" rx="10" ry="10" width="60" height="35" fill="#8742f5" />
  <rect x="498" y="418" rx="10" ry="10" width="60" height="35" fill="#8742f5" />
  <rect x="916" y="418" rx="10" ry="10" width="60" height="35" fill="#8742f5" />

  <text x="243" y="434" text-anchor="middle" dominant-baseline="central" font-size="0.7em" font-family="cursive" font-weight="bold" fill="white">Data</text>
  <text x="527" y="434" text-anchor="middle" dominant-baseline="central" font-size="0.7em" font-family="cursive" font-weight="bold" fill="white">Data</text>
  <text x="947" y="434" text-anchor="middle" dominant-baseline="central" font-size="0.7em" font-family="cursive" font-weight="bold" fill="white">Data</text>

  <rect x="202" y="231" rx="10" ry="10" width="77" height="35" fill="#995706" />
  <rect x="488" y="231" rx="10" ry="10" width="77" height="35" fill="#995706" />
  <rect x="907" y="231" rx="10" ry="10" width="77" height="35" fill="#995706" />

  <text x="240" y="248" text-anchor="middle" dominant-baseline="central" font-size="0.7em" font-family="cursive" font-weight="bold" fill="white">Topic 1</text>
  <text x="525" y="248" text-anchor="middle" dominant-baseline="central" font-size="0.7em" font-family="cursive" font-weight="bold" fill="white">Topic 2</text>
  <text x="945" y="248" text-anchor="middle" dominant-baseline="central" font-size="0.7em" font-family="cursive" font-weight="bold" fill="white">Topic 1</text>
  
</svg>
